<?xml version="1.0" encoding="UTF-8"?>
<svg xmlns="http://www.w3.org/2000/svg" xmlns:xlink="http://www.w3.org/1999/xlink" viewBox="0 0 48 48" width="48px" height="48px">
<g id="surface52467528">
<path style=" stroke:none;fill-rule:nonzero;fill:rgb(100%,100%,100%);fill-opacity:1;" d="M 23 0 C 20.238281 0 18 2.238281 18 5 L 18 8 L 10 8 C 7.789062 8 6 9.789062 6 12 L 6 18 C 6 19.105469 6.894531 20 8 20 L 8.714844 20 C 11.332031 20 13.710938 21.882812 13.972656 24.484375 C 14.273438 27.476562 11.933594 30 9 30 L 8 30 C 6.894531 30 6 30.894531 6 32 L 6 38 C 6 40.210938 7.789062 42 10 42 L 16 42 C 17.105469 42 18 41.105469 18 40 L 18 39.285156 C 18 36.667969 19.882812 34.289062 22.484375 34.027344 C 25.476562 33.726562 28 36.066406 28 39 L 28 40 C 28 41.105469 28.894531 42 30 42 L 36 42 C 38.210938 42 40 40.210938 40 38 L 40 30 L 43 30 C 45.761719 30 48 27.761719 48 25 C 48 22.238281 45.761719 20 43 20 L 40 20 L 40 12 C 40 9.789062 38.210938 8 36 8 L 28 8 L 28 5 C 28 2.238281 25.761719 0 23 0 Z M 23 0 "/>
</g>
</svg>
